<svg xmlns="http://www.w3.org/2000/svg" xmlns:xlink="http://www.w3.org/1999/xlink" width="500" zoomAndPan="magnify" viewBox="0 0 375 374.999991" height="500" preserveAspectRatio="xMidYMid meet" version="1.0"><defs><clipPath id="f00850331c"><path d="M 281 26.109375 L 358.046875 26.109375 L 358.046875 348.609375 L 281 348.609375 Z M 281 26.109375 " clip-rule="nonzero"/></clipPath><clipPath id="01eb0e713c"><path d="M 16.796875 26.109375 L 273 26.109375 L 273 348.609375 L 16.796875 348.609375 Z M 16.796875 26.109375 " clip-rule="nonzero"/></clipPath></defs><path fill="#fcdc45" d="M 293.53125 264.847656 L 345.859375 264.847656 C 347.570312 264.847656 349.160156 265.378906 350.46875 266.285156 L 350.46875 65.726562 L 326.203125 33.269531 C 322.953125 28.921875 316.441406 28.921875 313.191406 33.269531 L 288.921875 65.726562 L 288.921875 266.285156 C 290.234375 265.378906 291.820312 264.847656 293.535156 264.847656 Z M 293.53125 264.847656 " fill-opacity="1" fill-rule="nonzero"/><path fill="#ff86af" d="M 293.53125 302.683594 L 345.859375 302.683594 C 346.394531 302.683594 346.921875 302.734375 347.445312 302.839844 C 347.96875 302.941406 348.476562 303.097656 348.96875 303.300781 C 349.460938 303.507812 349.929688 303.757812 350.375 304.054688 C 350.816406 304.351562 351.226562 304.6875 351.605469 305.066406 C 351.980469 305.441406 352.320312 305.851562 352.613281 306.296875 C 352.910156 306.742188 353.160156 307.210938 353.367188 307.703125 C 353.570312 308.195312 353.722656 308.703125 353.828125 309.226562 C 353.933594 309.753906 353.984375 310.28125 353.984375 310.816406 L 353.984375 336.925781 C 353.984375 337.457031 353.933594 337.988281 353.828125 338.511719 C 353.722656 339.035156 353.570312 339.542969 353.367188 340.035156 C 353.160156 340.527344 352.910156 340.996094 352.613281 341.441406 C 352.320312 341.886719 351.980469 342.296875 351.605469 342.675781 C 351.226562 343.050781 350.816406 343.390625 350.375 343.683594 C 349.929688 343.980469 349.460938 344.234375 348.96875 344.4375 C 348.476562 344.640625 347.96875 344.796875 347.445312 344.898438 C 346.921875 345.003906 346.394531 345.054688 345.859375 345.054688 L 293.53125 345.054688 C 293 345.054688 292.46875 345.003906 291.945312 344.898438 C 291.421875 344.796875 290.914062 344.640625 290.421875 344.4375 C 289.929688 344.234375 289.460938 343.980469 289.019531 343.683594 C 288.574219 343.390625 288.164062 343.050781 287.785156 342.675781 C 287.410156 342.296875 287.074219 341.886719 286.777344 341.441406 C 286.480469 340.996094 286.230469 340.527344 286.027344 340.035156 C 285.820312 339.542969 285.667969 339.035156 285.5625 338.511719 C 285.460938 337.988281 285.40625 337.457031 285.40625 336.925781 L 285.40625 310.816406 C 285.40625 310.28125 285.460938 309.753906 285.5625 309.226562 C 285.667969 308.703125 285.820312 308.195312 286.027344 307.703125 C 286.230469 307.210938 286.480469 306.742188 286.777344 306.296875 C 287.074219 305.851562 287.410156 305.441406 287.785156 305.066406 C 288.164062 304.6875 288.574219 304.351562 289.019531 304.054688 C 289.460938 303.757812 289.929688 303.507812 290.421875 303.300781 C 290.914062 303.097656 291.425781 302.941406 291.945312 302.839844 C 292.46875 302.734375 293 302.683594 293.53125 302.683594 Z M 293.53125 302.683594 " fill-opacity="1" fill-rule="nonzero"/><path fill="#e3eae8" d="M 293.53125 264.847656 L 345.859375 264.847656 C 346.394531 264.847656 346.921875 264.898438 347.445312 265.003906 C 347.96875 265.109375 348.476562 265.261719 348.96875 265.464844 C 349.460938 265.671875 349.929688 265.921875 350.375 266.21875 C 350.816406 266.515625 351.226562 266.851562 351.605469 267.230469 C 351.980469 267.605469 352.320312 268.015625 352.613281 268.460938 C 352.910156 268.90625 353.160156 269.375 353.367188 269.867188 C 353.570312 270.359375 353.722656 270.867188 353.828125 271.394531 C 353.933594 271.917969 353.984375 272.445312 353.984375 272.980469 L 353.984375 275.632812 C 353.984375 276.167969 353.933594 276.695312 353.828125 277.21875 C 353.722656 277.742188 353.570312 278.25 353.367188 278.746094 C 353.160156 279.238281 352.910156 279.707031 352.613281 280.152344 C 352.320312 280.59375 351.980469 281.003906 351.605469 281.382812 C 351.226562 281.761719 350.816406 282.097656 350.375 282.394531 C 349.929688 282.691406 349.460938 282.941406 348.96875 283.144531 C 348.476562 283.351562 347.96875 283.503906 347.445312 283.609375 C 346.921875 283.710938 346.394531 283.765625 345.859375 283.765625 L 293.53125 283.765625 C 293 283.765625 292.46875 283.710938 291.945312 283.609375 C 291.421875 283.503906 290.914062 283.351562 290.421875 283.144531 C 289.929688 282.941406 289.460938 282.691406 289.019531 282.394531 C 288.574219 282.097656 288.164062 281.761719 287.785156 281.382812 C 287.410156 281.003906 287.074219 280.59375 286.777344 280.152344 C 286.480469 279.707031 286.230469 279.238281 286.027344 278.746094 C 285.820312 278.25 285.667969 277.742188 285.5625 277.21875 C 285.460938 276.695312 285.40625 276.167969 285.40625 275.632812 L 285.40625 272.980469 C 285.40625 272.445312 285.460938 271.917969 285.5625 271.394531 C 285.667969 270.867188 285.820312 270.359375 286.027344 269.867188 C 286.230469 269.375 286.480469 268.90625 286.777344 268.460938 C 287.074219 268.015625 287.410156 267.605469 287.785156 267.230469 C 288.164062 266.851562 288.574219 266.515625 289.019531 266.21875 C 289.460938 265.921875 289.929688 265.671875 290.421875 265.464844 C 290.914062 265.261719 291.425781 265.109375 291.945312 265.003906 C 292.46875 264.898438 293 264.847656 293.53125 264.847656 Z M 293.53125 264.847656 " fill-opacity="1" fill-rule="nonzero"/><path fill="#e3eae8" d="M 293.53125 283.765625 L 345.859375 283.765625 C 346.394531 283.765625 346.921875 283.816406 347.445312 283.921875 C 347.96875 284.023438 348.476562 284.179688 348.96875 284.382812 C 349.460938 284.589844 349.929688 284.839844 350.375 285.136719 C 350.816406 285.433594 351.226562 285.769531 351.605469 286.144531 C 351.980469 286.523438 352.320312 286.933594 352.613281 287.378906 C 352.910156 287.824219 353.160156 288.292969 353.367188 288.785156 C 353.570312 289.277344 353.722656 289.785156 353.828125 290.308594 C 353.933594 290.832031 353.984375 291.363281 353.984375 291.898438 L 353.984375 294.550781 C 353.984375 295.082031 353.933594 295.613281 353.828125 296.136719 C 353.722656 296.660156 353.570312 297.167969 353.367188 297.660156 C 353.160156 298.15625 352.910156 298.625 352.613281 299.066406 C 352.320312 299.511719 351.980469 299.921875 351.605469 300.300781 C 351.226562 300.675781 350.816406 301.015625 350.375 301.3125 C 349.929688 301.609375 349.460938 301.859375 348.96875 302.0625 C 348.476562 302.265625 347.96875 302.421875 347.445312 302.527344 C 346.921875 302.628906 346.394531 302.683594 345.859375 302.683594 L 293.53125 302.683594 C 293 302.683594 292.46875 302.628906 291.945312 302.527344 C 291.421875 302.421875 290.914062 302.265625 290.421875 302.0625 C 289.929688 301.859375 289.460938 301.609375 289.019531 301.3125 C 288.574219 301.015625 288.164062 300.675781 287.785156 300.300781 C 287.410156 299.921875 287.074219 299.511719 286.777344 299.066406 C 286.480469 298.625 286.230469 298.15625 286.027344 297.660156 C 285.820312 297.167969 285.667969 296.660156 285.5625 296.136719 C 285.460938 295.613281 285.40625 295.082031 285.40625 294.550781 L 285.40625 291.898438 C 285.40625 291.363281 285.460938 290.832031 285.5625 290.308594 C 285.667969 289.785156 285.820312 289.277344 286.027344 288.785156 C 286.230469 288.292969 286.480469 287.824219 286.777344 287.378906 C 287.074219 286.933594 287.410156 286.523438 287.785156 286.144531 C 288.164062 285.769531 288.574219 285.433594 289.019531 285.136719 C 289.460938 284.839844 289.929688 284.589844 290.421875 284.382812 C 290.914062 284.179688 291.425781 284.023438 291.945312 283.921875 C 292.46875 283.816406 293 283.765625 293.53125 283.765625 Z M 293.53125 283.765625 " fill-opacity="1" fill-rule="nonzero"/><path fill="#ffd5ae" d="M 326.199219 33.269531 C 322.949219 28.921875 316.441406 28.921875 313.191406 33.269531 L 288.921875 65.726562 L 288.921875 67.347656 L 319.695312 89.023438 L 350.46875 67.347656 L 350.46875 65.726562 L 326.203125 33.269531 Z M 326.199219 33.269531 " fill-opacity="1" fill-rule="nonzero"/><path fill="#407195" d="M 302.875 47.949219 L 336.515625 47.949219 C 336.515625 47.949219 336.707031 47.878906 337.027344 47.75 L 326.203125 33.269531 C 322.953125 28.921875 316.441406 28.921875 313.191406 33.269531 L 302.433594 47.65625 C 302.714844 47.847656 302.878906 47.949219 302.878906 47.949219 Z M 302.875 47.949219 " fill-opacity="1" fill-rule="nonzero"/><path fill="#33a6fb" d="M 37.109375 30.007812 L 252.375 30.007812 C 252.90625 30.007812 253.4375 30.035156 253.96875 30.085938 C 254.496094 30.140625 255.023438 30.21875 255.542969 30.320312 C 256.066406 30.425781 256.582031 30.554688 257.089844 30.710938 C 257.601562 30.863281 258.101562 31.042969 258.59375 31.246094 C 259.085938 31.449219 259.566406 31.679688 260.035156 31.929688 C 260.503906 32.179688 260.960938 32.453125 261.402344 32.75 C 261.84375 33.046875 262.273438 33.363281 262.683594 33.699219 C 263.09375 34.039062 263.488281 34.394531 263.863281 34.773438 C 264.242188 35.148438 264.597656 35.542969 264.9375 35.957031 C 265.273438 36.367188 265.589844 36.792969 265.886719 37.238281 C 266.179688 37.679688 266.453125 38.136719 266.707031 38.605469 C 266.957031 39.078125 267.183594 39.558594 267.386719 40.050781 C 267.589844 40.542969 267.769531 41.042969 267.925781 41.550781 C 268.078125 42.0625 268.207031 42.578125 268.3125 43.101562 C 268.414062 43.621094 268.492188 44.148438 268.546875 44.679688 C 268.597656 45.210938 268.625 45.742188 268.625 46.273438 L 268.625 328.792969 C 268.625 329.324219 268.597656 329.855469 268.546875 330.386719 C 268.492188 330.914062 268.414062 331.441406 268.3125 331.964844 C 268.207031 332.488281 268.078125 333.003906 267.925781 333.511719 C 267.769531 334.023438 267.589844 334.523438 267.386719 335.015625 C 267.183594 335.507812 266.957031 335.988281 266.707031 336.457031 C 266.453125 336.929688 266.179688 337.382812 265.886719 337.828125 C 265.589844 338.269531 265.273438 338.699219 264.9375 339.109375 C 264.597656 339.519531 264.242188 339.914062 263.863281 340.292969 C 263.488281 340.667969 263.09375 341.027344 262.683594 341.363281 C 262.273438 341.703125 261.84375 342.019531 261.402344 342.316406 C 260.960938 342.609375 260.503906 342.882812 260.035156 343.136719 C 259.566406 343.386719 259.085938 343.613281 258.59375 343.816406 C 258.101562 344.023438 257.601562 344.199219 257.089844 344.355469 C 256.582031 344.511719 256.066406 344.640625 255.542969 344.742188 C 255.023438 344.847656 254.496094 344.925781 253.96875 344.976562 C 253.4375 345.03125 252.90625 345.054688 252.375 345.054688 L 37.109375 345.054688 C 36.578125 345.054688 36.046875 345.03125 35.515625 344.976562 C 34.988281 344.925781 34.460938 344.847656 33.9375 344.742188 C 33.417969 344.640625 32.902344 344.511719 32.390625 344.355469 C 31.882812 344.199219 31.382812 344.023438 30.890625 343.816406 C 30.398438 343.613281 29.917969 343.386719 29.449219 343.136719 C 28.980469 342.882812 28.523438 342.609375 28.082031 342.316406 C 27.640625 342.019531 27.210938 341.703125 26.800781 341.363281 C 26.390625 341.027344 25.996094 340.667969 25.617188 340.292969 C 25.242188 339.914062 24.886719 339.519531 24.546875 339.109375 C 24.210938 338.699219 23.894531 338.269531 23.597656 337.828125 C 23.300781 337.382812 23.027344 336.929688 22.777344 336.457031 C 22.527344 335.988281 22.300781 335.507812 22.097656 335.015625 C 21.890625 334.523438 21.714844 334.023438 21.558594 333.511719 C 21.40625 333.003906 21.273438 332.488281 21.171875 331.964844 C 21.066406 331.441406 20.988281 330.917969 20.9375 330.386719 C 20.886719 329.855469 20.859375 329.324219 20.859375 328.792969 L 20.859375 46.273438 C 20.859375 45.742188 20.886719 45.210938 20.9375 44.679688 C 20.988281 44.148438 21.066406 43.621094 21.171875 43.101562 C 21.273438 42.578125 21.40625 42.0625 21.558594 41.550781 C 21.714844 41.042969 21.890625 40.542969 22.097656 40.050781 C 22.300781 39.558594 22.527344 39.078125 22.777344 38.605469 C 23.027344 38.136719 23.300781 37.679688 23.597656 37.238281 C 23.894531 36.792969 24.210938 36.367188 24.546875 35.957031 C 24.886719 35.542969 25.242188 35.148438 25.617188 34.773438 C 25.996094 34.394531 26.390625 34.039062 26.800781 33.699219 C 27.210938 33.363281 27.640625 33.046875 28.082031 32.75 C 28.523438 32.453125 28.980469 32.179688 29.449219 31.929688 C 29.917969 31.679688 30.398438 31.449219 30.890625 31.246094 C 31.382812 31.042969 31.882812 30.863281 32.390625 30.710938 C 32.902344 30.554688 33.417969 30.425781 33.9375 30.320312 C 34.460938 30.21875 34.988281 30.140625 35.515625 30.085938 C 36.046875 30.035156 36.578125 30.007812 37.109375 30.007812 Z M 37.109375 30.007812 " fill-opacity="1" fill-rule="nonzero"/><path fill="#b4d9fb" d="M 46.304688 47.117188 L 243.179688 47.117188 C 243.710938 47.117188 244.238281 47.167969 244.761719 47.273438 C 245.285156 47.375 245.792969 47.53125 246.289062 47.734375 C 246.78125 47.9375 247.25 48.191406 247.691406 48.488281 C 248.136719 48.78125 248.546875 49.121094 248.921875 49.496094 C 249.300781 49.875 249.636719 50.285156 249.933594 50.730469 C 250.230469 51.175781 250.480469 51.644531 250.683594 52.136719 C 250.890625 52.628906 251.042969 53.136719 251.148438 53.660156 C 251.25 54.183594 251.304688 54.714844 251.304688 55.25 L 251.304688 140.355469 C 251.304688 140.890625 251.25 141.421875 251.148438 141.945312 C 251.042969 142.46875 250.890625 142.976562 250.683594 143.46875 C 250.480469 143.960938 250.230469 144.429688 249.933594 144.875 C 249.636719 145.320312 249.300781 145.730469 248.921875 146.109375 C 248.546875 146.484375 248.136719 146.820312 247.691406 147.117188 C 247.25 147.414062 246.78125 147.667969 246.289062 147.871094 C 245.792969 148.074219 245.285156 148.230469 244.761719 148.332031 C 244.238281 148.4375 243.710938 148.488281 243.179688 148.488281 L 46.304688 148.488281 C 45.773438 148.488281 45.242188 148.4375 44.71875 148.332031 C 44.195312 148.230469 43.6875 148.074219 43.195312 147.871094 C 42.703125 147.667969 42.234375 147.414062 41.792969 147.117188 C 41.347656 146.820312 40.9375 146.484375 40.558594 146.109375 C 40.183594 145.730469 39.847656 145.320312 39.550781 144.875 C 39.253906 144.429688 39.003906 143.960938 38.800781 143.46875 C 38.59375 142.976562 38.441406 142.46875 38.335938 141.945312 C 38.230469 141.421875 38.179688 140.890625 38.179688 140.355469 L 38.179688 55.25 C 38.179688 54.714844 38.230469 54.183594 38.335938 53.660156 C 38.441406 53.136719 38.59375 52.628906 38.800781 52.136719 C 39.003906 51.644531 39.253906 51.175781 39.550781 50.730469 C 39.847656 50.285156 40.183594 49.875 40.558594 49.496094 C 40.9375 49.121094 41.347656 48.78125 41.792969 48.488281 C 42.234375 48.191406 42.703125 47.9375 43.195312 47.734375 C 43.6875 47.53125 44.195312 47.375 44.71875 47.273438 C 45.242188 47.167969 45.773438 47.117188 46.304688 47.117188 Z M 46.304688 47.117188 " fill-opacity="1" fill-rule="nonzero"/><path fill="#009da2" d="M 46.304688 167.886719 L 243.179688 167.886719 C 243.710938 167.886719 244.238281 167.941406 244.761719 168.042969 C 245.285156 168.148438 245.792969 168.300781 246.289062 168.507812 C 246.78125 168.710938 247.25 168.960938 247.691406 169.257812 C 248.136719 169.554688 248.546875 169.890625 248.921875 170.269531 C 249.300781 170.648438 249.636719 171.058594 249.933594 171.503906 C 250.230469 171.945312 250.480469 172.414062 250.683594 172.90625 C 250.890625 173.402344 251.042969 173.910156 251.148438 174.433594 C 251.25 174.957031 251.304688 175.484375 251.304688 176.019531 L 251.304688 319.804688 C 251.304688 320.339844 251.25 320.867188 251.148438 321.390625 C 251.042969 321.914062 250.890625 322.425781 250.683594 322.917969 C 250.480469 323.410156 250.230469 323.878906 249.933594 324.324219 C 249.636719 324.769531 249.300781 325.179688 248.921875 325.554688 C 248.546875 325.933594 248.136719 326.269531 247.691406 326.566406 C 247.25 326.863281 246.78125 327.113281 246.289062 327.320312 C 245.792969 327.523438 245.285156 327.675781 244.761719 327.78125 C 244.238281 327.886719 243.710938 327.9375 243.179688 327.9375 L 46.304688 327.9375 C 45.773438 327.9375 45.242188 327.886719 44.71875 327.78125 C 44.195312 327.675781 43.6875 327.523438 43.195312 327.320312 C 42.703125 327.113281 42.234375 326.863281 41.792969 326.566406 C 41.347656 326.269531 40.9375 325.933594 40.558594 325.554688 C 40.183594 325.179688 39.847656 324.769531 39.550781 324.324219 C 39.253906 323.878906 39.003906 323.410156 38.800781 322.917969 C 38.59375 322.425781 38.441406 321.914062 38.335938 321.390625 C 38.230469 320.867188 38.179688 320.339844 38.179688 319.804688 L 38.179688 176.019531 C 38.179688 175.484375 38.230469 174.957031 38.335938 174.433594 C 38.441406 173.910156 38.59375 173.402344 38.800781 172.90625 C 39.003906 172.414062 39.253906 171.945312 39.550781 171.503906 C 39.847656 171.058594 40.183594 170.648438 40.558594 170.269531 C 40.9375 169.890625 41.347656 169.554688 41.792969 169.257812 C 42.234375 168.960938 42.703125 168.710938 43.195312 168.507812 C 43.6875 168.300781 44.195312 168.148438 44.71875 168.042969 C 45.242188 167.941406 45.773438 167.886719 46.304688 167.886719 Z M 46.304688 167.886719 " fill-opacity="1" fill-rule="nonzero"/><path fill="#b4d9fb" d="M 46.304688 167.886719 L 118.136719 167.886719 L 118.136719 247.914062 L 38.179688 247.914062 L 38.179688 176.019531 C 38.179688 171.53125 41.820312 167.886719 46.304688 167.886719 Z M 46.304688 167.886719 " fill-opacity="1" fill-rule="nonzero"/><path fill="#b4d9fb" d="M 118.136719 167.886719 L 198.089844 167.886719 L 198.089844 247.914062 L 118.136719 247.914062 Z M 118.136719 167.886719 " fill-opacity="1" fill-rule="nonzero"/><path fill="#fcdc45" d="M 198.089844 167.886719 L 243.179688 167.886719 C 247.664062 167.886719 251.304688 171.53125 251.304688 176.019531 L 251.304688 225.929688 L 198.089844 225.929688 Z M 198.089844 167.886719 " fill-opacity="1" fill-rule="nonzero"/><path fill="#b4d9fb" d="M 38.179688 247.914062 L 118.136719 247.914062 L 118.136719 327.9375 L 46.304688 327.9375 C 41.820312 327.9375 38.179688 324.292969 38.179688 319.804688 Z M 38.179688 247.914062 " fill-opacity="1" fill-rule="nonzero"/><path fill="#b4d9fb" d="M 118.136719 247.914062 L 198.089844 247.914062 L 198.089844 327.9375 L 118.136719 327.9375 Z M 118.136719 247.914062 " fill-opacity="1" fill-rule="nonzero"/><path fill="#fcdc45" d="M 89.886719 199.769531 L 86.28125 199.769531 L 86.28125 196.160156 C 86.28125 191.667969 82.644531 188.027344 78.15625 188.027344 C 73.671875 188.027344 70.03125 191.667969 70.03125 196.160156 L 70.03125 199.769531 L 66.425781 199.769531 C 61.9375 199.769531 58.300781 203.410156 58.300781 207.902344 C 58.300781 212.390625 61.9375 216.03125 66.425781 216.03125 L 70.03125 216.03125 L 70.03125 219.640625 C 70.03125 224.132812 73.671875 227.773438 78.15625 227.773438 C 82.644531 227.773438 86.28125 224.132812 86.28125 219.640625 L 86.28125 216.03125 L 89.886719 216.03125 C 94.375 216.03125 98.011719 212.390625 98.011719 207.902344 C 98.011719 203.410156 94.375 199.769531 89.886719 199.769531 Z M 89.886719 199.769531 " fill-opacity="1" fill-rule="nonzero"/><path fill="#fcdc45" d="M 169.84375 216.03125 L 146.382812 216.03125 C 141.894531 216.03125 138.257812 212.390625 138.257812 207.902344 C 138.257812 203.410156 141.894531 199.769531 146.382812 199.769531 L 169.84375 199.769531 C 174.332031 199.769531 177.96875 203.410156 177.96875 207.902344 C 177.96875 212.390625 174.332031 216.03125 169.84375 216.03125 Z M 169.84375 216.03125 " fill-opacity="1" fill-rule="nonzero"/><path fill="#fcdc45" d="M 89.648438 287.925781 L 92.199219 285.375 C 95.371094 282.195312 95.371094 277.046875 92.199219 273.871094 C 89.023438 270.695312 83.878906 270.695312 80.707031 273.871094 L 78.15625 276.425781 L 75.609375 273.871094 C 72.433594 270.695312 67.289062 270.699219 64.117188 273.871094 C 60.945312 277.046875 60.945312 282.195312 64.117188 285.375 L 66.667969 287.925781 L 64.117188 290.476562 C 60.945312 293.652344 60.945312 298.804688 64.117188 301.980469 C 65.703125 303.566406 67.78125 304.359375 69.863281 304.359375 C 71.941406 304.359375 74.019531 303.566406 75.605469 301.980469 L 78.15625 299.425781 L 80.707031 301.980469 C 82.292969 303.566406 84.371094 304.359375 86.453125 304.359375 C 88.53125 304.359375 90.609375 303.566406 92.195312 301.980469 C 95.371094 298.804688 95.371094 293.652344 92.195312 290.476562 Z M 89.648438 287.925781 " fill-opacity="1" fill-rule="nonzero"/><path fill="#fcdc45" d="M 169.84375 296.058594 L 146.382812 296.058594 C 141.894531 296.058594 138.257812 292.417969 138.257812 287.925781 C 138.257812 283.433594 141.894531 279.792969 146.382812 279.792969 L 169.84375 279.792969 C 174.332031 279.792969 177.96875 283.433594 177.96875 287.925781 C 177.96875 292.417969 174.332031 296.058594 169.84375 296.058594 Z M 169.84375 296.058594 " fill-opacity="1" fill-rule="nonzero"/><path fill="#fcdc45" d="M 166.238281 271.660156 C 166.238281 272.195312 166.183594 272.722656 166.082031 273.246094 C 165.976562 273.769531 165.824219 274.28125 165.617188 274.773438 C 165.414062 275.265625 165.164062 275.734375 164.867188 276.179688 C 164.570312 276.625 164.234375 277.035156 163.855469 277.410156 C 163.480469 277.789062 163.070312 278.125 162.625 278.421875 C 162.183594 278.71875 161.714844 278.96875 161.222656 279.175781 C 160.730469 279.378906 160.21875 279.53125 159.695312 279.636719 C 159.175781 279.742188 158.644531 279.792969 158.113281 279.792969 C 157.578125 279.792969 157.050781 279.742188 156.527344 279.636719 C 156.003906 279.53125 155.496094 279.378906 155.003906 279.175781 C 154.511719 278.96875 154.042969 278.71875 153.597656 278.421875 C 153.15625 278.125 152.742188 277.789062 152.367188 277.410156 C 151.988281 277.035156 151.652344 276.625 151.355469 276.179688 C 151.058594 275.734375 150.808594 275.265625 150.605469 274.773438 C 150.402344 274.28125 150.246094 273.769531 150.144531 273.246094 C 150.039062 272.722656 149.988281 272.195312 149.988281 271.660156 C 149.988281 271.128906 150.039062 270.597656 150.144531 270.074219 C 150.246094 269.550781 150.402344 269.042969 150.605469 268.550781 C 150.808594 268.054688 151.058594 267.585938 151.355469 267.144531 C 151.652344 266.699219 151.988281 266.289062 152.367188 265.910156 C 152.742188 265.535156 153.15625 265.195312 153.597656 264.898438 C 154.042969 264.601562 154.511719 264.351562 155.003906 264.148438 C 155.496094 263.945312 156.003906 263.789062 156.527344 263.683594 C 157.050781 263.582031 157.578125 263.527344 158.113281 263.527344 C 158.644531 263.527344 159.175781 263.582031 159.695312 263.683594 C 160.21875 263.789062 160.730469 263.945312 161.222656 264.148438 C 161.714844 264.351562 162.183594 264.601562 162.625 264.898438 C 163.070312 265.195312 163.480469 265.535156 163.855469 265.910156 C 164.234375 266.289062 164.570312 266.699219 164.867188 267.144531 C 165.164062 267.585938 165.414062 268.054688 165.617188 268.550781 C 165.824219 269.042969 165.976562 269.550781 166.082031 270.074219 C 166.183594 270.597656 166.238281 271.128906 166.238281 271.660156 Z M 166.238281 271.660156 " fill-opacity="1" fill-rule="nonzero"/><path fill="#fcdc45" d="M 166.238281 304.191406 C 166.238281 304.722656 166.183594 305.253906 166.082031 305.777344 C 165.976562 306.300781 165.824219 306.808594 165.617188 307.300781 C 165.414062 307.796875 165.164062 308.265625 164.867188 308.707031 C 164.570312 309.152344 164.234375 309.5625 163.855469 309.941406 C 163.480469 310.316406 163.070312 310.65625 162.625 310.953125 C 162.183594 311.25 161.714844 311.5 161.222656 311.703125 C 160.730469 311.90625 160.21875 312.0625 159.695312 312.164062 C 159.175781 312.269531 158.644531 312.320312 158.113281 312.320312 C 157.578125 312.320312 157.050781 312.269531 156.527344 312.164062 C 156.003906 312.0625 155.496094 311.90625 155.003906 311.703125 C 154.511719 311.5 154.042969 311.25 153.597656 310.953125 C 153.15625 310.65625 152.742188 310.316406 152.367188 309.941406 C 151.988281 309.5625 151.652344 309.152344 151.355469 308.707031 C 151.058594 308.265625 150.808594 307.796875 150.605469 307.300781 C 150.402344 306.808594 150.246094 306.300781 150.144531 305.777344 C 150.039062 305.253906 149.988281 304.722656 149.988281 304.191406 C 149.988281 303.65625 150.039062 303.128906 150.144531 302.601562 C 150.246094 302.078125 150.402344 301.570312 150.605469 301.078125 C 150.808594 300.585938 151.058594 300.117188 151.355469 299.671875 C 151.652344 299.226562 151.988281 298.816406 152.367188 298.441406 C 152.742188 298.0625 153.15625 297.726562 153.597656 297.429688 C 154.042969 297.132812 154.511719 296.882812 155.003906 296.675781 C 155.496094 296.472656 156.003906 296.316406 156.527344 296.214844 C 157.050781 296.109375 157.578125 296.058594 158.113281 296.058594 C 158.644531 296.058594 159.175781 296.109375 159.695312 296.214844 C 160.21875 296.316406 160.730469 296.472656 161.222656 296.675781 C 161.714844 296.882812 162.183594 297.132812 162.625 297.429688 C 163.070312 297.726562 163.480469 298.0625 163.855469 298.441406 C 164.234375 298.816406 164.570312 299.226562 164.867188 299.671875 C 165.164062 300.117188 165.414062 300.585938 165.617188 301.078125 C 165.824219 301.570312 165.976562 302.078125 166.082031 302.601562 C 166.183594 303.128906 166.238281 303.65625 166.238281 304.191406 Z M 166.238281 304.191406 " fill-opacity="1" fill-rule="nonzero"/><g clip-path="url(#f00850331c)"><path fill="#000000" d="M 358.046875 272.980469 C 358.046875 269.648438 356.703125 266.625 354.53125 264.421875 L 354.53125 132.199219 C 354.53125 129.953125 352.714844 128.132812 350.46875 128.132812 C 348.226562 128.132812 346.40625 129.953125 346.40625 132.199219 L 346.40625 260.808594 C 346.226562 260.800781 346.042969 260.78125 345.859375 260.78125 L 323.757812 260.78125 L 323.757812 91.132812 L 346.40625 75.179688 L 346.40625 99.667969 C 346.40625 101.914062 348.226562 103.734375 350.46875 103.734375 C 352.710938 103.734375 354.53125 101.914062 354.53125 99.667969 L 354.53125 65.726562 C 354.53125 64.847656 354.246094 63.996094 353.722656 63.289062 L 329.453125 30.832031 C 327.128906 27.726562 323.574219 25.941406 319.695312 25.941406 C 315.820312 25.941406 312.261719 27.726562 309.9375 30.832031 L 285.667969 63.289062 C 285.144531 63.996094 284.859375 64.847656 284.859375 65.726562 L 284.859375 264.421875 C 282.6875 266.625 281.34375 269.648438 281.34375 272.980469 L 281.34375 275.632812 C 281.34375 278.757812 282.535156 281.605469 284.472656 283.765625 C 282.535156 285.925781 281.34375 288.769531 281.34375 291.898438 L 281.34375 294.550781 C 281.34375 297.675781 282.535156 300.523438 284.472656 302.683594 C 282.535156 304.84375 281.34375 307.6875 281.34375 310.816406 L 281.34375 336.925781 C 281.34375 343.648438 286.8125 349.121094 293.53125 349.121094 L 345.859375 349.121094 C 352.578125 349.121094 358.046875 343.648438 358.046875 336.925781 L 358.046875 310.816406 C 358.046875 307.6875 356.855469 304.84375 354.917969 302.683594 C 356.855469 300.523438 358.046875 297.675781 358.046875 294.550781 L 358.046875 291.898438 C 358.046875 288.769531 356.855469 285.925781 354.917969 283.765625 C 356.855469 281.605469 358.046875 278.757812 358.046875 275.632812 Z M 349.921875 272.980469 L 349.921875 275.632812 C 349.921875 277.875 348.101562 279.699219 345.859375 279.699219 L 293.53125 279.699219 C 291.292969 279.699219 289.46875 277.875 289.46875 275.632812 L 289.46875 272.980469 C 289.46875 270.738281 291.292969 268.914062 293.53125 268.914062 L 345.859375 268.914062 C 348.101562 268.914062 349.921875 270.738281 349.921875 272.980469 Z M 349.921875 291.898438 L 349.921875 294.550781 C 349.921875 296.792969 348.101562 298.617188 345.859375 298.617188 L 293.53125 298.617188 C 291.292969 298.617188 289.46875 296.792969 289.46875 294.550781 L 289.46875 291.898438 C 289.46875 289.65625 291.292969 287.832031 293.53125 287.832031 L 345.859375 287.832031 C 348.101562 287.832031 349.921875 289.65625 349.921875 291.898438 Z M 293.53125 260.78125 C 293.347656 260.78125 293.167969 260.800781 292.984375 260.808594 L 292.984375 75.179688 L 315.632812 91.132812 L 315.632812 260.78125 Z M 345.503906 65.875 L 319.695312 84.050781 L 293.886719 65.875 L 304.246094 52.015625 L 335.144531 52.015625 Z M 316.441406 35.707031 C 317.21875 34.667969 318.402344 34.074219 319.695312 34.074219 C 320.988281 34.074219 322.171875 34.667969 322.949219 35.707031 L 329.0625 43.882812 L 310.328125 43.882812 Z M 349.921875 336.925781 C 349.921875 339.167969 348.097656 340.988281 345.859375 340.988281 L 293.53125 340.988281 C 291.292969 340.988281 289.46875 339.167969 289.46875 336.925781 L 289.46875 310.816406 C 289.46875 308.574219 291.292969 306.75 293.53125 306.75 L 345.859375 306.75 C 348.097656 306.75 349.921875 308.574219 349.921875 310.816406 Z M 349.921875 336.925781 " fill-opacity="1" fill-rule="nonzero"/></g><g clip-path="url(#01eb0e713c)"><path fill="#000000" d="M 252.375 25.941406 L 37.109375 25.941406 C 25.910156 25.941406 16.796875 35.0625 16.796875 46.273438 L 16.796875 328.792969 C 16.796875 340 25.910156 349.121094 37.109375 349.121094 L 252.375 349.121094 C 263.574219 349.121094 272.6875 340 272.6875 328.792969 L 272.6875 46.273438 C 272.6875 35.0625 263.574219 25.941406 252.375 25.941406 Z M 264.5625 328.792969 C 264.5625 335.519531 259.09375 340.992188 252.375 340.992188 L 37.109375 340.992188 C 30.390625 340.992188 24.921875 335.519531 24.921875 328.792969 L 24.921875 46.273438 C 24.921875 39.546875 30.390625 34.074219 37.109375 34.074219 L 252.375 34.074219 C 259.09375 34.074219 264.5625 39.546875 264.5625 46.273438 Z M 264.5625 328.792969 " fill-opacity="1" fill-rule="nonzero"/></g><path fill="#000000" d="M 243.179688 43.050781 L 46.304688 43.050781 C 39.585938 43.050781 34.117188 48.519531 34.117188 55.246094 L 34.117188 140.355469 C 34.117188 147.082031 39.585938 152.554688 46.304688 152.554688 L 243.179688 152.554688 C 249.898438 152.554688 255.367188 147.082031 255.367188 140.355469 L 255.367188 55.246094 C 255.367188 48.519531 249.898438 43.050781 243.179688 43.050781 Z M 247.242188 140.355469 C 247.242188 142.601562 245.417969 144.421875 243.179688 144.421875 L 46.304688 144.421875 C 44.066406 144.421875 42.242188 142.601562 42.242188 140.355469 L 42.242188 55.246094 C 42.242188 53.003906 44.066406 51.179688 46.304688 51.179688 L 243.179688 51.179688 C 245.417969 51.179688 247.242188 53.003906 247.242188 55.246094 Z M 247.242188 140.355469 " fill-opacity="1" fill-rule="nonzero"/><path fill="#000000" d="M 243.179688 163.820312 L 46.304688 163.820312 C 39.585938 163.820312 34.117188 169.292969 34.117188 176.019531 L 34.117188 319.804688 C 34.117188 326.53125 39.585938 332.003906 46.304688 332.003906 L 243.179688 332.003906 C 249.898438 332.003906 255.367188 326.53125 255.367188 319.804688 L 255.367188 176.019531 C 255.367188 169.292969 249.898438 163.820312 243.179688 163.820312 Z M 247.242188 176.019531 L 247.242188 221.863281 L 202.152344 221.863281 L 202.152344 171.953125 L 243.179688 171.953125 C 245.417969 171.953125 247.242188 173.777344 247.242188 176.019531 Z M 122.199219 251.980469 L 194.027344 251.980469 L 194.027344 323.871094 L 122.199219 323.871094 Z M 194.027344 243.847656 L 122.199219 243.847656 L 122.199219 171.953125 L 194.027344 171.953125 Z M 46.304688 171.953125 L 114.074219 171.953125 L 114.074219 243.847656 L 42.242188 243.847656 L 42.242188 176.019531 C 42.242188 173.777344 44.066406 171.953125 46.304688 171.953125 Z M 42.242188 319.804688 L 42.242188 251.980469 L 114.074219 251.980469 L 114.074219 323.871094 L 46.304688 323.871094 C 44.066406 323.871094 42.242188 322.046875 42.242188 319.804688 Z M 243.179688 323.871094 L 202.152344 323.871094 L 202.152344 229.996094 L 247.242188 229.996094 L 247.242188 319.804688 C 247.242188 322.046875 245.417969 323.871094 243.179688 323.871094 Z M 243.179688 323.871094 " fill-opacity="1" fill-rule="nonzero"/><path fill="#000000" d="M 226.5 119.449219 L 189.179688 119.449219 C 186.9375 119.449219 185.117188 121.269531 185.117188 123.511719 C 185.117188 125.757812 186.9375 127.578125 189.179688 127.578125 L 226.5 127.578125 C 228.742188 127.578125 230.5625 125.757812 230.5625 123.511719 C 230.5625 121.269531 228.742188 119.449219 226.5 119.449219 Z M 226.5 119.449219 " fill-opacity="1" fill-rule="nonzero"/><path fill="#000000" d="M 65.980469 220.089844 C 66.214844 226.609375 71.589844 231.839844 78.15625 231.839844 C 84.726562 231.839844 90.101562 226.609375 90.335938 220.089844 C 96.851562 219.851562 102.074219 214.476562 102.074219 207.898438 C 102.074219 201.324219 96.851562 195.949219 90.335938 195.710938 C 90.101562 189.191406 84.726562 183.960938 78.15625 183.960938 C 71.589844 183.960938 66.214844 189.191406 65.980469 195.710938 C 59.464844 195.949219 54.238281 201.324219 54.238281 207.898438 C 54.238281 214.476562 59.464844 219.851562 65.980469 220.089844 Z M 66.425781 203.835938 L 70.03125 203.835938 C 72.277344 203.835938 74.09375 202.011719 74.09375 199.769531 L 74.09375 196.160156 C 74.09375 193.917969 75.917969 192.09375 78.15625 192.09375 C 80.398438 192.09375 82.21875 193.917969 82.21875 196.160156 L 82.21875 199.769531 C 82.21875 202.011719 84.039062 203.835938 86.28125 203.835938 L 89.886719 203.835938 C 92.128906 203.835938 93.949219 205.65625 93.949219 207.898438 C 93.949219 210.144531 92.128906 211.964844 89.886719 211.964844 L 86.28125 211.964844 C 84.039062 211.964844 82.21875 213.789062 82.21875 216.03125 L 82.21875 219.640625 C 82.21875 221.882812 80.398438 223.707031 78.15625 223.707031 C 75.917969 223.707031 74.09375 221.882812 74.09375 219.640625 L 74.09375 216.03125 C 74.09375 213.789062 72.277344 211.964844 70.03125 211.964844 L 66.425781 211.964844 C 64.1875 211.964844 62.363281 210.144531 62.363281 207.898438 C 62.363281 205.65625 64.1875 203.835938 66.425781 203.835938 Z M 66.425781 203.835938 " fill-opacity="1" fill-rule="nonzero"/><path fill="#000000" d="M 146.382812 220.097656 L 169.84375 220.097656 C 176.5625 220.097656 182.03125 214.628906 182.03125 207.902344 C 182.03125 201.175781 176.5625 195.703125 169.84375 195.703125 L 146.382812 195.703125 C 139.660156 195.703125 134.195312 201.175781 134.195312 207.902344 C 134.195312 214.628906 139.660156 220.097656 146.382812 220.097656 Z M 146.382812 203.835938 L 169.84375 203.835938 C 172.082031 203.835938 173.90625 205.660156 173.90625 207.902344 C 173.90625 210.144531 172.082031 211.96875 169.84375 211.96875 L 146.382812 211.96875 C 144.140625 211.96875 142.320312 210.144531 142.320312 207.902344 C 142.320312 205.660156 144.140625 203.835938 146.382812 203.835938 Z M 146.382812 203.835938 " fill-opacity="1" fill-rule="nonzero"/><path fill="#000000" d="M 95.382812 287.925781 C 99.820312 283.148438 99.714844 275.648438 95.070312 270.996094 C 90.425781 266.347656 82.929688 266.246094 78.15625 270.6875 C 73.382812 266.246094 65.890625 266.347656 61.242188 271 C 56.597656 275.648438 56.496094 283.148438 60.933594 287.925781 C 56.496094 292.703125 56.597656 300.203125 61.246094 304.855469 C 63.546875 307.15625 66.605469 308.425781 69.863281 308.425781 C 72.96875 308.425781 75.894531 307.273438 78.15625 305.164062 C 80.417969 307.273438 83.347656 308.425781 86.453125 308.425781 C 89.707031 308.425781 92.765625 307.15625 95.070312 304.855469 C 99.714844 300.203125 99.820312 292.703125 95.382812 287.925781 Z M 86.773438 290.800781 L 89.324219 293.351562 C 90.910156 294.9375 90.910156 297.519531 89.324219 299.101562 C 88.558594 299.871094 87.535156 300.292969 86.453125 300.292969 C 85.367188 300.292969 84.347656 299.871094 83.578125 299.101562 L 81.027344 296.550781 C 80.234375 295.757812 79.195312 295.359375 78.15625 295.359375 C 77.117188 295.359375 76.078125 295.757812 75.285156 296.550781 L 72.734375 299.101562 C 71.96875 299.871094 70.945312 300.292969 69.863281 300.292969 C 68.777344 300.292969 67.757812 299.871094 66.988281 299.101562 C 65.40625 297.515625 65.40625 294.9375 66.988281 293.351562 L 69.539062 290.800781 C 70.300781 290.039062 70.730469 289.003906 70.730469 287.925781 C 70.730469 286.847656 70.300781 285.8125 69.539062 285.050781 L 66.992188 282.496094 C 65.40625 280.910156 65.40625 278.332031 66.988281 276.746094 C 68.574219 275.160156 71.148438 275.160156 72.734375 276.746094 L 75.285156 279.296875 C 76.046875 280.0625 77.078125 280.488281 78.15625 280.488281 C 79.234375 280.488281 80.269531 280.0625 81.03125 279.300781 L 83.582031 276.746094 C 85.164062 275.160156 87.742188 275.164062 89.324219 276.746094 C 90.910156 278.332031 90.910156 280.914062 89.324219 282.496094 L 86.773438 285.050781 C 86.011719 285.8125 85.585938 286.847656 85.585938 287.925781 C 85.585938 289.003906 86.011719 290.039062 86.773438 290.800781 Z M 86.773438 290.800781 " fill-opacity="1" fill-rule="nonzero"/><path fill="#000000" d="M 182.03125 287.925781 C 182.03125 281.199219 176.5625 275.726562 169.84375 275.726562 L 169.589844 275.726562 C 170.039062 274.453125 170.300781 273.089844 170.300781 271.660156 C 170.300781 264.933594 164.832031 259.464844 158.113281 259.464844 C 151.390625 259.464844 145.925781 264.933594 145.925781 271.660156 C 145.925781 273.089844 146.183594 274.453125 146.636719 275.726562 L 146.382812 275.726562 C 139.660156 275.726562 134.195312 281.199219 134.195312 287.925781 C 134.195312 294.652344 139.660156 300.125 146.382812 300.125 L 146.636719 300.125 C 146.183594 301.398438 145.925781 302.761719 145.925781 304.191406 C 145.925781 310.914062 151.390625 316.386719 158.113281 316.386719 C 164.832031 316.386719 170.300781 310.914062 170.300781 304.191406 C 170.300781 302.761719 170.039062 301.398438 169.589844 300.125 L 169.84375 300.125 C 176.5625 300.125 182.03125 294.652344 182.03125 287.925781 Z M 154.050781 271.660156 C 154.050781 269.417969 155.871094 267.59375 158.113281 267.59375 C 160.351562 267.59375 162.175781 269.417969 162.175781 271.660156 C 162.175781 273.902344 160.351562 275.726562 158.113281 275.726562 C 155.871094 275.726562 154.050781 273.902344 154.050781 271.660156 Z M 142.320312 287.925781 C 142.320312 285.683594 144.140625 283.859375 146.382812 283.859375 L 169.84375 283.859375 C 172.082031 283.859375 173.90625 285.683594 173.90625 287.925781 C 173.90625 290.167969 172.082031 291.992188 169.84375 291.992188 L 146.382812 291.992188 C 144.140625 291.992188 142.320312 290.167969 142.320312 287.925781 Z M 162.175781 304.191406 C 162.175781 306.433594 160.351562 308.257812 158.113281 308.257812 C 155.871094 308.257812 154.050781 306.433594 154.050781 304.191406 C 154.050781 301.949219 155.871094 300.125 158.113281 300.125 C 160.351562 300.125 162.175781 301.949219 162.175781 304.191406 Z M 162.175781 304.191406 " fill-opacity="1" fill-rule="nonzero"/><path fill="#000000" d="M 354.53125 115.933594 C 354.53125 116.203125 354.507812 116.464844 354.453125 116.726562 C 354.402344 116.988281 354.324219 117.242188 354.222656 117.492188 C 354.121094 117.738281 353.996094 117.972656 353.847656 118.191406 C 353.699219 118.414062 353.53125 118.621094 353.34375 118.808594 C 353.152344 119 352.949219 119.167969 352.726562 119.316406 C 352.503906 119.464844 352.269531 119.589844 352.023438 119.691406 C 351.777344 119.792969 351.523438 119.871094 351.261719 119.921875 C 351 119.972656 350.738281 120 350.46875 120 C 350.203125 120 349.9375 119.972656 349.675781 119.921875 C 349.414062 119.871094 349.160156 119.792969 348.914062 119.691406 C 348.667969 119.589844 348.433594 119.464844 348.214844 119.316406 C 347.992188 119.167969 347.785156 119 347.597656 118.808594 C 347.410156 118.621094 347.242188 118.414062 347.09375 118.191406 C 346.945312 117.972656 346.820312 117.738281 346.71875 117.492188 C 346.613281 117.242188 346.539062 116.988281 346.484375 116.726562 C 346.433594 116.464844 346.40625 116.203125 346.40625 115.933594 C 346.40625 115.667969 346.433594 115.402344 346.484375 115.140625 C 346.539062 114.878906 346.613281 114.625 346.71875 114.378906 C 346.820312 114.132812 346.945312 113.898438 347.09375 113.675781 C 347.242188 113.453125 347.410156 113.246094 347.597656 113.058594 C 347.785156 112.871094 347.992188 112.703125 348.214844 112.554688 C 348.433594 112.40625 348.667969 112.28125 348.914062 112.179688 C 349.160156 112.074219 349.414062 112 349.675781 111.945312 C 349.9375 111.894531 350.203125 111.867188 350.46875 111.867188 C 350.738281 111.867188 351 111.894531 351.261719 111.945312 C 351.523438 112 351.777344 112.074219 352.023438 112.179688 C 352.269531 112.28125 352.503906 112.40625 352.726562 112.554688 C 352.949219 112.703125 353.152344 112.871094 353.34375 113.058594 C 353.53125 113.246094 353.699219 113.453125 353.847656 113.675781 C 353.996094 113.898438 354.121094 114.132812 354.222656 114.378906 C 354.324219 114.625 354.402344 114.878906 354.453125 115.140625 C 354.507812 115.402344 354.53125 115.667969 354.53125 115.933594 Z M 354.53125 115.933594 " fill-opacity="1" fill-rule="nonzero"/></svg>